<?xml version="1.0" encoding="UTF-8" standalone="no"?>
<svg
   xmlns:dc="http://purl.org/dc/elements/1.1/"
   xmlns:cc="http://creativecommons.org/ns#"
   xmlns:rdf="http://www.w3.org/1999/02/22-rdf-syntax-ns#"
   xmlns:svg="http://www.w3.org/2000/svg"
   xmlns="http://www.w3.org/2000/svg"
   xmlns:sodipodi="http://sodipodi.sourceforge.net/DTD/sodipodi-0.dtd"
   xmlns:inkscape="http://www.inkscape.org/namespaces/inkscape"
   version="1.0"
   width="100%"
   height="100%"
   viewBox="0 0 70 70"
   id="_red04"
   inkscape:version="0.48.2 r9819"
   sodipodi:docname="red.svg"
   inkscape:export-filename="/Users/dthurn/Dropbox/dropswitch/android/assets/red.png"
   inkscape:export-xdpi="90.199997"
   inkscape:export-ydpi="90.199997">
  <metadata
     id="metadata57">
    <rdf:RDF>
      <cc:Work
         rdf:about="">
        <dc:format>image/svg+xml</dc:format>
        <dc:type
           rdf:resource="http://purl.org/dc/dcmitype/StillImage" />
        <dc:title />
      </cc:Work>
    </rdf:RDF>
  </metadata>
  <sodipodi:namedview
     pagecolor="#ffffff"
     bordercolor="#666666"
     borderopacity="1"
     objecttolerance="10"
     gridtolerance="10"
     guidetolerance="10"
     inkscape:pageopacity="0"
     inkscape:pageshadow="2"
     inkscape:window-width="1440"
     inkscape:window-height="852"
     id="namedview55"
     showgrid="false"
     inkscape:zoom="2.7874323"
     inkscape:cx="41.769375"
     inkscape:cy="95.495367"
     inkscape:window-x="0"
     inkscape:window-y="0"
     inkscape:window-maximized="1"
     inkscape:current-layer="_red04" />
  <defs
     id="defs2385" />
  <g
     id="red04"
     style="display:inline"
     transform="matrix(1.3124869,0,0,1.3124869,2.9293826,3.4543774)">
    <path
       d="M 6,15.94 6,31.81 16.72,42.31 31.3,42.74 42.66,31.59 42.87,16.48 32.48,5.54 16.93,5.33 6,15.94 z"
       id="p2481"
       style="fill:#972424;fill-opacity:1;fill-rule:evenodd;stroke:none"
       inkscape:connector-curvature="0" />
    <path
       d="m 6,16.5 0,15.31 10.71,10.5 14.6,0.44 11.34,-11.16 0.22,-14.91 -1.87,1.25 -2.44,-0.22 -2.35,0.66 0.32,1.25 -1.91,-0.09 -1.28,0.84 -0.72,1.5 -0.12,5.63 -4.25,4.68 -0.63,0.85 -7.03,0.31 -6.16,-5.53 -0.18,-2.66 -2.57,-4.12 -0.62,0.93 L 9.87,19.84 7.12,18.68 6.46,16.78 6,16.5 z"
       id="p3451"
       style="fill:#f25757;fill-opacity:0.34000017;fill-rule:evenodd;stroke:none;display:inline"
       inkscape:connector-curvature="0" />
    <path
       d="m 28.87,16.4 -4.66,10.38 -2.78,4.28 -0.28,2 6.72,-0.06 4.59,-5.04 0.44,-7.31 -4.03,-4.25 z"
       id="p3273"
       style="fill:#360b0b;fill-opacity:0.76999996;fill-rule:evenodd;stroke:none"
       inkscape:connector-curvature="0" />
    <path
       d="m 28.19,22.91 3.86,3.32 -0.11,0.86 -4.4,-2.89 -1.71,-0.65 1.39,-1.71 0.86,0 0.11,1.07 z"
       id="p3317"
       style="fill:#da8484;fill-opacity:0.83999999;fill-rule:evenodd;stroke:none;display:inline"
       inkscape:connector-curvature="0" />
    <path
       d="m 18.53,18.84 -0.63,0.84 -1.81,-0.4 1.5,6.97 -3.19,1.53 2.16,2.15 5.09,-2.62 0.66,-2.69 3.09,-1.06 -1.59,-3.53 -5.28,-1.19 z"
       id="p3275"
       style="fill:#5f5555;fill-opacity:0.56000001;fill-rule:evenodd;stroke:none"
       inkscape:connector-curvature="0" />
    <path
       d="m 17.25,13.28 -0.97,3.53 -3,2.87 -1.5,-0.75 -0.03,0.69 -2.85,-0.41 2.47,1.29 -0.56,0.28 0.44,1.5 0.65,-1.19 2.25,4.5 0,0.66 -2.59,1.59 1.53,2.03 -1.63,0.97 -2.9,-0.97 0,0.66 4.09,1.5 4.38,-1.63 -2.78,-2.44 0.12,-1.4 2.34,-2.56 -2.34,-3.13 0,-0.84 5.66,-5.16 -0.32,-1.5 -1.5,-0.09 -0.96,0 z"
       id="p3280"
       style="fill:#200808;fill-opacity:0.76000001;fill-rule:evenodd;stroke:none;display:inline"
       inkscape:connector-curvature="0" />
    <path
       d="m 22.9,14.71 0.35,1.35 0.87,0.22 0,0.53 -1.41,-0.53 0.54,1.15 -2.25,0.35 -1.38,1.37 2.78,0.88 0.66,-0.97 2.87,0.44 -0.97,-1.63 1.29,-0.84 -0.5,-2.28 -2.85,-0.04 z"
       id="p3283"
       style="fill:#140505;fill-opacity:0.73000004;fill-rule:evenodd;stroke:none;display:inline"
       inkscape:connector-curvature="0" />
    <path
       d="m 16.96,5.34 -0.25,1.16 1.19,3.96 0.63,-0.31 2.59,0.13 1.94,2.56 0.53,-0.31 0.81,2.18 0.97,0.04 -1.47,-2.22 0.53,-0.22 -0.53,-1.41 2.16,0.53 0,-0.75 L 25.4,10.59 24.21,6.93 23.68,6.62 23.68,6.4 25.4,6.31 24.62,5.43 16.96,5.34 z"
       id="p3286"
       style="fill:#370b0b;fill-opacity:0.76999996;fill-rule:evenodd;stroke:none;display:inline"
       inkscape:connector-curvature="0" />
    <path
       d="m 16.93,5.34 1.82,2.25 -0.63,2.12 1.16,2.07 1.84,-1.32 L 20.68,9.62 21.56,9.31 21.12,8.34 23.15,7.9 22.93,6.31 20.37,6.5 18.65,5.37 16.93,5.34 z"
       id="p3305"
       style="fill:#d84949;fill-opacity:0.91000001;fill-rule:evenodd;stroke:none;display:inline"
       inkscape:connector-curvature="0" />
    <path
       d="m 18.73,19.1 0.54,-3.82 0.67,-0.44 -0.35,-3.69 1.34,-0.81 -0.27,-0.67 0.86,-0.41 1.3,1.22 -1.71,-0.18 1.67,2.24 0.89,-0.04 0.68,2.2 -2.88,-0.04 1.08,1.66 0.49,1.12 -2.2,0.23 -1.03,1.3 -1.08,0.13 z"
       id="p3522"
       style="fill:#9d4949;fill-opacity:0.54000005;fill-rule:evenodd;stroke:none;display:inline"
       inkscape:connector-curvature="0" />
    <path
       d="m 24.43,5.43 0.75,0.88 -1.37,0.19 -0.13,0.43 0.88,0.13 -0.35,0.75 1.1,3 3.4,-1.28 1.5,0.09 1.5,-1.28 -0.18,1.59 1.59,0.53 0.84,-1.9 L 32.71,5.84 32.46,5.56 24.43,5.43 z"
       id="p3307"
       style="fill:#dc5757;fill-opacity:0.86000001;fill-rule:evenodd;stroke:none;display:inline"
       inkscape:connector-curvature="0" />
    <path
       d="m 30.76,27.84 -1.93,1.5 -0.32,-1.28 -1.07,1.07 -1.93,-5.15 1.28,-2.89 6.22,0.21 -4.71,1.5 1.71,1.08 -1.82,0.96 0.75,0.54 -1.72,1.28 3.54,1.18 z"
       id="p3321"
       style="fill:#ae5f5f;fill-opacity:0.83999999;fill-rule:evenodd;stroke:none;display:inline"
       inkscape:connector-curvature="0" />
    <path
       d="m 26.68,20.87 -1.37,3.13 -0.28,0.09 -0.85,-0.22 -6.62,2.28 4.5,-0.94 -1.69,5.19 0.84,1.72 0.13,-1.16 2.87,-3.96 1.63,3.62 1.5,0.44 0,0.65 0.84,1.07 0.22,-0.88 -1.28,-3.31 1.5,-0.53 0,-0.97 -2.47,-1.06 -0.53,-2.25 2.69,-0.97 0.19,-1.94 -1.82,0 z"
       id="p3311"
       style="fill:#e16e6e;fill-opacity:0.83999999;fill-rule:evenodd;stroke:none;display:inline"
       inkscape:connector-curvature="0" />
    <path
       d="m 31.73,19.69 3.21,-0.32 -0.32,-0.75 2.14,0.11 1.83,-0.96 -0.97,-1.61 2.9,-0.54 -1.4,-0.86 1.07,-1.18 -5.03,-3.43 -1.08,1.61 1.5,0.97 -1.39,2.14 0.43,0.22 -1.18,1.82 -1.29,-1.5 -0.42,4.28 z"
       id="p3314"
       style="fill:#dc5757;fill-opacity:0.86000001;fill-rule:evenodd;stroke:none;display:inline"
       inkscape:connector-curvature="0" />
    <path
       d="m 23.06,33.09 -1.69,2.53 -1.16,2.84 -2.21,0.97 -0.88,2.88 1.75,0.06 1.88,-1.47 -2.04,0.44 3.41,-2.56 1.56,0.53 0.53,-3.28 2.22,-0.85 -1.15,-2.09 -2.22,0 z"
       id="p3439"
       style="fill:#661414;fill-opacity:0.76999996;fill-rule:evenodd;stroke:none;display:inline"
       inkscape:connector-curvature="0" />
    <path
       d="m 23.7,41.65 3.06,-0.64 -2.32,-0.74 1.37,-3.07 2.12,0.64 0.84,1.9 0.74,-4.44 -1.48,0.53 -0.53,-0.95 -1.37,0 -1.8,1.26 -0.32,0.96 -0.95,-0.53 2.54,-2.75 -0.53,-0.74 -1.37,0 -1.38,3.06 -0.21,1.8 1.8,-0.74 -0.32,2.01 -0.53,-0.31 -0.53,1.69 1.8,-0.74 -0.63,1.8 z"
       id="p3427"
       style="fill:#1e0606;fill-opacity:0.76999996;fill-rule:evenodd;stroke:none;display:inline"
       inkscape:connector-curvature="0" />
    <path
       d="m 30.04,30.54 0.96,2.96 2.11,-0.85 -0.53,-2.54 1.17,0.32 1.27,-2.54 -2.65,-0.95 0,0.95 -2.33,2.65 z"
       id="p3430"
       style="fill:#451010;fill-opacity:1;fill-rule:evenodd;stroke:none;display:inline"
       inkscape:connector-curvature="0" />
    <path
       d="m 32.81,25.46 -0.53,2.22 2.62,1.47 0.53,0.66 1.28,-2.22 2.32,0.94 1.37,2.34 0.97,0.5 1,0.5 0.28,-0.28 0.03,-1.94 -1.53,-1.87 0,0.97 -0.94,-1.82 -1.81,-0.93 0.44,1.68 -3.19,-1.37 0,0.53 -2.84,-1.38 z m 3.15,5.72 -0.75,0.63 2.04,0.62 -0.54,0.53 2.63,0.44 -1.47,1.6 1.28,0.03 3.13,-3.07 -2.28,0.91 -1.29,-1.28 -1.37,0 -1.38,-0.41 z"
       id="p3433"
       style="fill:#4d1111;fill-opacity:0.76999996;fill-rule:evenodd;stroke:none;display:inline"
       inkscape:connector-curvature="0" />
    <path
       d="m 18.93,32.87 -0.31,2.53 -2,1.38 -0.66,1.28 -0.31,-0.22 -0.22,1.16 -1.37,-1.6 0.34,2.66 1.91,1.84 -0.44,-2.15 1.06,-2.44 2.53,-1.69 0.32,-2.66 -0.85,-0.09 z m 1.69,8.03 -3.16,0.63 -0.59,0.78 6.5,0.19 1.28,-1.16 -5.5,0.94 1.47,-1.38 z"
       id="p3436"
       style="fill:#511010;fill-opacity:0.76999996;fill-rule:evenodd;stroke:none;display:inline"
       inkscape:connector-curvature="0" />
    <path
       d="m 14.15,20.02 0.21,7.71 5.36,5.36 8.15,-0.1 4.61,-5.04 0.42,-7.29 -5.57,-5.9 -7.5,-0.1 -5.68,5.36 z"
       id="p3271"
       style="fill:none;stroke:#d45050;stroke-width:0.40000001;stroke-linecap:butt;stroke-linejoin:miter;stroke-miterlimit:4;stroke-opacity:0.68999999;stroke-dasharray:none"
       inkscape:connector-curvature="0" />
    <path
       d="m 31.76,6.03 0,2.45 -1.28,0.74 -0.74,1.81 0.21,-1.6 -0.64,0 1.92,-3.29 0.53,-0.11 z"
       id="p3455"
       style="fill:#5c1010;fill-opacity:0.83999999;fill-rule:evenodd;stroke:none;display:inline"
       inkscape:connector-curvature="0" />
    <path
       d="m 30.48,17.93 1.17,-3.29 0.64,0.64 -0.85,3.71 -0.96,-1.06 z"
       id="p3458"
       style="fill:#390909;fill-opacity:0.83999999;fill-rule:evenodd;stroke:none;display:inline"
       inkscape:connector-curvature="0" />
    <path
       d="m 32.5,23.03 0.11,-1.8 1.59,-1.6 3.72,0.43 1.06,-0.22 0.96,-0.74 0.74,1.06 -1.38,1.17 -0.11,-0.95 -1.7,1.91 -4.99,0.74 z"
       id="p3464"
       style="fill:#ef5f5f;fill-opacity:0.6;fill-rule:evenodd;stroke:none;display:inline"
       inkscape:connector-curvature="0" />
    <path
       d="m 32.5,24.94 3.72,-2.33 0,-0.64 0.74,-0.11 0.32,-1.27 -1.27,1.06 -3.51,1.28 0,2.01 z"
       id="p3461"
       style="fill:#500808;fill-opacity:0.8;fill-rule:evenodd;stroke:none;display:inline"
       inkscape:connector-curvature="0" />
    <path
       d="m 42.84,18.09 -0.88,1.66 -1.5,0 -0.93,1.46 -0.22,-0.71 -1.91,1.78 0.1,0.87 4.25,-1.28 1,3.13 0.09,-6.91 z"
       id="p3467"
       style="fill:#500808;fill-opacity:0.4;fill-rule:evenodd;stroke:none;display:inline"
       inkscape:connector-curvature="0" />
    <path
       d="m 16.22,37.9 1.68,1.78 c 0,0 0.99,-0.29 0.99,-0.69 0,-0.39 0,-1.58 0,-1.58 l -1.38,-0.89 -0.79,0.49 -0.5,0.89 z"
       id="p3476"
       style="fill:#de7575;fill-opacity:0.76999996;fill-rule:evenodd;stroke:none;display:inline"
       inkscape:connector-curvature="0" />
    <path
       d="m 20.48,38.2 1.58,0.49 -3.32,2.58 -1.37,0.28 0.75,-1.65 2.36,-1.7 z"
       id="p3478"
       style="fill:#bc2f2f;fill-opacity:0.76999996;fill-rule:evenodd;stroke:none;display:inline"
       inkscape:connector-curvature="0" />
    <path
       d="m 11.57,31.17 1.49,2.18 1.58,-1.28 1.19,0.29 -0.1,-1.78 1.18,0 -1.88,-1.48 -3.46,2.07 z"
       id="p3480"
       style="fill:#651212;fill-opacity:0.61000001;fill-rule:evenodd;stroke:none;display:inline"
       inkscape:connector-curvature="0" />
    <path
       d="M 9.78,25.84 7.4,26.81 7.31,25.93 6,27.43 l 0,1.6 1.53,-1.63 0.09,0.81 2.56,-0.68 -0.4,-1.69 z"
       id="p3482"
       style="fill:#761c1c;fill-opacity:0.65;fill-rule:evenodd;stroke:none;display:inline"
       inkscape:connector-curvature="0" />
    <path
       d="m 18.89,17.32 0,1.78 -0.99,0.89 -1.68,-0.59 2.67,-2.08 z"
       id="p3484"
       style="fill:#410b0b;fill-opacity:0.76999996;fill-rule:evenodd;stroke:none;display:inline"
       inkscape:connector-curvature="0" />
    <path
       d="m 38.28,12.37 -0.69,1.38 0.31,0.4 -1.09,0.19 1.28,3.47 0.37,-0.22 -0.84,-1.44 2.91,-0.53 -1.41,-0.84 1.06,-1.19 -1.65,-1.13 -0.25,-0.09 z"
       id="p3486"
       style="fill:#f6a2a2;fill-opacity:0.4;fill-rule:evenodd;stroke:none;display:inline"
       inkscape:connector-curvature="0" />
    <path
       d="m 6,19.84 0,5.03 1.21,-0.72 -0.5,-1.69 0.82,0.19 0.68,1.41 0.6,-0.22 L 9.9,21.87 7.31,20 7.31,20.68 6,19.84 z"
       id="p3488"
       style="fill:#de7575;fill-opacity:0.65;fill-rule:evenodd;stroke:none;display:inline"
       inkscape:connector-curvature="0" />
    <path
       d="m 9.3,16.53 1.48,0.2 1.78,2.47 -0.59,0 -0.5,1.68 -0.69,0 -0.2,-2.27 -1.28,-2.08 z"
       id="p3490"
       style="fill:#f97f7f;fill-opacity:0.72000002;fill-rule:evenodd;stroke:none;display:inline"
       inkscape:connector-curvature="0" />
    <path
       d="m 9.37,30.18 1.52,-1.84 1.57,0.72 1.96,-1.16 1.07,0.89 -4.02,2.01 -2.1,-0.62 z"
       id="p3514"
       style="fill:#eba6a6;fill-opacity:0.65;fill-rule:evenodd;stroke:none"
       inkscape:connector-curvature="0" />
    <path
       d="M 9.78,25.84 10.09,27 10.94,25.84 10.71,25.49 9.78,25.84 z"
       id="p3516"
       style="fill:#f4cece;fill-opacity:0.72000002;fill-rule:evenodd;stroke:none"
       inkscape:connector-curvature="0" />
    <path
       d="m 12.05,26.78 0.32,0.54 1.07,-0.63 -0.31,-0.53 -1.08,0.62 z"
       id="p3518"
       style="fill:#f4cece;fill-opacity:0.72000002;fill-rule:evenodd;stroke:none"
       inkscape:connector-curvature="0" />
    <path
       d="M 6.02,30.09 7.59,28.21 7.45,27.36 5.89,29.1 6.02,30.09 z"
       id="p3520"
       style="fill:#e37e7e;fill-opacity:0.72000002;fill-rule:evenodd;stroke:none"
       inkscape:connector-curvature="0" />
    <path
       d="M 20.48,6.48 21.25,8.32 23.13,7.87 22.87,6.39 20.48,6.48 z"
       id="p3525"
       style="fill:#edabab;fill-opacity:0.72000002;fill-rule:evenodd;stroke:none"
       inkscape:connector-curvature="0" />
    <path
       d="m 17.38,24.73 -3.15,-4.2 0.09,-0.36 0.64,-0.6 2.42,5.16 z"
       id="p3532"
       style="fill:#f6d8d8;fill-opacity:0.54000005;fill-rule:evenodd;stroke:none;display:inline"
       inkscape:connector-curvature="0" />
    <path
       d="m 10.08,12.09 1.64,-0.18 -0.5,0.64 1.82,-0.46 -0.36,1.32 2.69,1.42 -1.87,0.73 2.55,1.41 -4.56,-0.18 1.01,-0.68 -2.79,-1.74 0.78,-1.41 -1.37,-0.05 0.96,-0.82 z"
       id="p3535"
       style="fill:#a65555;fill-opacity:0.38999999;fill-rule:evenodd;stroke:none;display:inline"
       inkscape:connector-curvature="0" />
    <path
       d="m 15.78,14.78 1.37,-3.78 1.37,-1.05 0.68,1.59 -0.27,1.19 -1.74,0.64 -0.36,1.32 -1.05,0.09 z"
       id="p3537"
       style="fill:#a66c6c;fill-opacity:0.38999999;fill-rule:evenodd;stroke:none;display:inline"
       inkscape:connector-curvature="0" />
    <path
       d="m 16.09,19.28 1.03,4.81 c 1.14,-0.21 2.19,-2.06 2.19,-2.06 l 4.06,2 1.94,-0.5 -7.66,-3.85 -0.19,-0.09 -1.37,-0.31 z"
       id="p3541"
       style="fill:#a65555;fill-opacity:0.45;fill-rule:evenodd;stroke:none;display:inline"
       inkscape:connector-curvature="0" />
    <path
       d="m 6.64,15.3 3.32,-0.97 0.75,-1.6 -1.92,0.21 -2.15,2.36 z"
       id="p3257"
       style="fill:#f9b4b4;fill-opacity:0.93999999;fill-rule:evenodd;stroke:none"
       inkscape:connector-curvature="0" />
    <path
       d="m 30.22,30.41 -0.64,1.29 0.22,2.9 0.85,-0.33 -0.1,1.08 0.64,2.03 -0.75,2.9 0.75,0 0.54,-3.33 1.28,-0.96 -2.79,-5.58 z"
       id="p3259"
       style="fill:#fdd6d6;fill-opacity:0.93999999;fill-rule:evenodd;stroke:none"
       inkscape:connector-curvature="0" />
    <path
       d="m 28.51,12.51 -1.07,2.36 4.18,4.29 2.89,-1.18 -3.64,-6.86 -2.36,1.39 z"
       id="p3261"
       style="fill:#f2f0f0;fill-opacity:0.56000001;fill-rule:evenodd;stroke:none"
       inkscape:connector-curvature="0" />
    <path
       d="m 35.16,29.24 -2.58,-6.76 4.72,-1.71 0,1.28 -2.14,7.19 z"
       id="p3263"
       style="fill:#f2f0f0;fill-opacity:0.56000001;fill-rule:evenodd;stroke:none"
       inkscape:connector-curvature="0" />
    <path
       d="m 32.69,41.24 0,-2.25 1.29,-1.61 -0.32,2.9 -0.97,0.96 z"
       id="p3265"
       style="fill:#fab6b6;fill-opacity:0.93999999;fill-rule:evenodd;stroke:none"
       inkscape:connector-curvature="0" />
    <path
       d="m 12.54,28.91 0.53,1.18 2.58,-1.28 -1.18,-0.97 -1.93,1.07 z"
       id="p3267"
       style="fill:#fdcfcf;fill-opacity:0.93999999;fill-rule:evenodd;stroke:none"
       inkscape:connector-curvature="0" />
    <path
       d="m 25.29,23.98 -0.64,1.93 1.72,0.11 -1.08,-2.04 z"
       id="p3269"
       style="fill:#fddfdf;fill-opacity:0.93999999;fill-rule:evenodd;stroke:none"
       inkscape:connector-curvature="0" />
    <path
       d="M 6,15.94 6,31.81 16.72,42.31 31.3,42.74 42.66,31.59 42.87,16.48 32.48,5.54 16.93,5.33 6,15.94 z"
       id="stroke01"
       style="fill:none;stroke:#420707;stroke-width:0.5;stroke-linecap:butt;stroke-linejoin:round;stroke-miterlimit:4;stroke-opacity:1;stroke-dasharray:none"
       inkscape:connector-curvature="0" />
  </g>
</svg>
